<svg xmlns="http://www.w3.org/2000/svg" viewBox="0 0 800 520">
<rect width="800" height="520" rx="36" fill="#f5fbfa"/>
<circle cx="620" cy="125" r="72" fill="#d8f3ef"/><path d="M590 125c18-24 42-24 60 0" fill="none" stroke="#39bfae" stroke-width="10" stroke-linecap="round"/>
<path d="M185 285c65-80 165-116 265-92 68 16 120 57 165 111" fill="none" stroke="#0a3448" stroke-width="24" stroke-linecap="round"/>
<path d="M205 286c69-52 145-72 221-56 55 12 101 38 142 75" fill="none" stroke="#fff" stroke-width="50" stroke-linecap="round"/>
<path d="M208 285c70-52 145-72 218-56 53 12 98 37 138 73" fill="none" stroke="#bde9e3" stroke-width="9" stroke-linecap="round"/>
<g fill="#fff" stroke="#0a3448" stroke-width="5"><path d="M285 236l22-4 8 50-23 4z"/><path d="M325 225l24-1 4 53-24 1z"/><path d="M365 220l25 2-2 54-25-2z"/><path d="M407 224l24 4-7 52-24-4z"/></g>
<g fill="#39bfae"><circle cx="553" cy="103" r="7"/><circle cx="578" cy="82" r="5"/><circle cx="603" cy="103" r="4"/></g>
<text x="400" y="445" text-anchor="middle" font-family="Arial, sans-serif" font-size="34" font-weight="700" fill="#0a3448">تجميل الأسنان</text>
</svg>
